<svg width="136" height="50" viewBox="0 0 136 50" fill="none" xmlns="http://www.w3.org/2000/svg">
<path d="M28.0421 38.4728L28.0421 8.01784L11.2202 8.01784L17.6318 0.00338585L35.9385 0.00338745L35.9385 28.8554L28.0421 38.4728Z" fill="#070932"/>
<path d="M7.89635 11.2247L7.89634 41.6797L24.7183 41.6797L18.3067 49.6941L-6.76812e-06 49.6941L-1.69203e-06 20.8421L7.89635 11.2247Z" fill="#070932"/>
<path d="M58.965 10.8613V24.2879H65.3203V26.8613H56V10.8613H58.965Z" fill="#070932"/>
<path d="M81.374 10.8613V13.4124H73.3628V17.4403H80.9936V20.0921H73.3292V24.2879H81.5306V26.8613H70.4201V10.8613H81.374Z" fill="#070932"/>
<path d="M101.803 10.8613L94.7871 26.8613H91.5983L84.885 10.8613H88.4095L93.3661 23.1131L98.3116 10.8613H101.803Z" fill="#070932"/>
<path d="M116.726 10.8613V13.4124H108.715V17.4403H116.346V20.0921H108.681V24.2879H116.883V26.8613H105.772V10.8613H116.726Z" fill="#070932"/>
<path d="M121.916 26.839V10.8613H129.188C132.455 10.8613 134.089 12.2898 134.089 15.1466C134.089 17.0786 132.817 18.6786 130.274 19.9466L135.342 26.8613H131.605L126.738 19.8907V18.5369C129.572 18.052 130.99 16.9518 130.99 15.2362C130.99 14.0576 130.326 13.4683 128.998 13.4683H124.936V26.839H121.916Z" fill="#070932"/>
<path d="M56.2197 37.4385H57.0063L57.8896 42.9053L59.665 37.4385H60.478L62.3809 42.9053L63.3784 37.4385H64.1299L62.9478 43.7227H61.8403L60.0649 38.458L58.3467 43.7227H57.2524L56.2197 37.4385ZM70.5556 37.4385V38.0977H67.2597V40.207H70.4018V40.8662H67.2597V43.0635H70.6215V43.7227H66.4467V37.4385H70.5556ZM73.4085 43.7227H72.5647L75.2322 37.4385H76.1331L78.8138 43.7227H77.9129L77.0999 41.7451H75.0213L75.2454 41.0859H76.8274L75.6541 38.2383L73.4085 43.7227ZM81.8337 37.4385V43.0635H85.1208V43.7227H81.0207V37.4385H81.8337ZM91.6827 37.4385V38.0977H89.7052V43.7227H88.8922V38.0977H86.9146V37.4385H91.6827ZM94.0039 43.7227V37.4385H94.8169V40.207H98.5303V37.4385H99.3433V43.7227H98.5303V40.8662H94.8169V43.7227H94.0039Z" fill="#070932"/>
<path d="M56.2197 37.4385V37.2885H56.0431L56.0717 37.4628L56.2197 37.4385ZM57.0063 37.4385L57.1544 37.4146L57.1341 37.2885H57.0063V37.4385ZM57.8896 42.9053L57.7416 42.9292L58.0323 42.9516L57.8896 42.9053ZM59.665 37.4385V37.2885H59.556L59.5224 37.3921L59.665 37.4385ZM60.478 37.4385L60.6197 37.3892L60.5846 37.2885H60.478V37.4385ZM62.3809 42.9053L62.2392 42.9546L62.4263 43.492L62.5284 42.9322L62.3809 42.9053ZM63.3784 37.4385V37.2885H63.2533L63.2309 37.4115L63.3784 37.4385ZM64.1299 37.4385L64.2773 37.4662L64.3107 37.2885H64.1299V37.4385ZM62.9478 43.7227V43.8727H63.0722L63.0952 43.7504L62.9478 43.7227ZM61.8403 43.7227L61.6982 43.7706L61.7326 43.8727H61.8403V43.7227ZM60.0649 38.458L60.2071 38.4101L60.0626 37.9817L59.9223 38.4115L60.0649 38.458ZM58.3467 43.7227V43.8727H58.4555L58.4893 43.7692L58.3467 43.7227ZM57.2524 43.7227L57.1044 43.747L57.1251 43.8727H57.2524V43.7227ZM56.2197 37.5885H57.0063V37.2885H56.2197V37.5885ZM56.8583 37.4624L57.7416 42.9292L58.0377 42.8813L57.1544 37.4146L56.8583 37.4624ZM58.0323 42.9516L59.8077 37.4848L59.5224 37.3921L57.747 42.8589L58.0323 42.9516ZM59.665 37.5885H60.478V37.2885H59.665V37.5885ZM60.3364 37.4878L62.2392 42.9546L62.5225 42.856L60.6197 37.3892L60.3364 37.4878ZM62.5284 42.9322L63.526 37.4654L63.2309 37.4115L62.2333 42.8783L62.5284 42.9322ZM63.3784 37.5885H64.1299V37.2885H63.3784V37.5885ZM63.9825 37.4107L62.8003 43.6949L63.0952 43.7504L64.2773 37.4662L63.9825 37.4107ZM62.9478 43.5727H61.8403V43.8727H62.9478V43.5727ZM61.9825 43.6747L60.2071 38.4101L59.9228 38.5059L61.6982 43.7706L61.9825 43.6747ZM59.9223 38.4115L58.2041 43.6761L58.4893 43.7692L60.2075 38.5045L59.9223 38.4115ZM58.3467 43.5727H57.2524V43.8727H58.3467V43.5727ZM57.4005 43.6983L56.3677 37.4142L56.0717 37.4628L57.1044 43.747L57.4005 43.6983ZM70.5556 37.4385H70.7056V37.2885H70.5556V37.4385ZM70.5556 38.0977V38.2477H70.7056V38.0977H70.5556ZM67.2597 38.0977V37.9477H67.1097V38.0977H67.2597ZM67.2597 40.207H67.1097V40.357H67.2597V40.207ZM70.4018 40.207H70.5518V40.057H70.4018V40.207ZM70.4018 40.8662V41.0162H70.5518V40.8662H70.4018ZM67.2597 40.8662V40.7162H67.1097V40.8662H67.2597ZM67.2597 43.0635H67.1097V43.2135H67.2597V43.0635ZM70.6215 43.0635H70.7715V42.9135H70.6215V43.0635ZM70.6215 43.7227V43.8727H70.7715V43.7227H70.6215ZM66.4467 43.7227H66.2967V43.8727H66.4467V43.7227ZM66.4467 37.4385V37.2885H66.2967V37.4385H66.4467ZM70.4056 37.4385V38.0977H70.7056V37.4385H70.4056ZM70.5556 37.9477H67.2597V38.2477H70.5556V37.9477ZM67.1097 38.0977V40.207H67.4097V38.0977H67.1097ZM67.2597 40.357H70.4018V40.057H67.2597V40.357ZM70.2518 40.207V40.8662H70.5518V40.207H70.2518ZM70.4018 40.7162H67.2597V41.0162H70.4018V40.7162ZM67.1097 40.8662V43.0635H67.4097V40.8662H67.1097ZM67.2597 43.2135H70.6215V42.9135H67.2597V43.2135ZM70.4715 43.0635V43.7227H70.7715V43.0635H70.4715ZM70.6215 43.5727H66.4467V43.8727H70.6215V43.5727ZM66.5967 43.7227V37.4385H66.2967V43.7227H66.5967ZM66.4467 37.5885H70.5556V37.2885H66.4467V37.5885ZM73.4085 43.7227V43.8727H73.5092L73.5473 43.7795L73.4085 43.7227ZM72.5647 43.7227L72.4267 43.664L72.3381 43.8727H72.5647V43.7227ZM75.2322 37.4385V37.2885H75.1329L75.0942 37.3799L75.2322 37.4385ZM76.1331 37.4385L76.2711 37.3796L76.2322 37.2885H76.1331V37.4385ZM78.8138 43.7227V43.8727H79.0408L78.9517 43.6638L78.8138 43.7227ZM77.9129 43.7227L77.7742 43.7797L77.8124 43.8727H77.9129V43.7227ZM77.0999 41.7451L77.2386 41.6881L77.2004 41.5951H77.0999V41.7451ZM75.0213 41.7451L74.8793 41.6968L74.8119 41.8951H75.0213V41.7451ZM75.2454 41.0859V40.9359H75.138L75.1034 41.0377L75.2454 41.0859ZM76.8274 41.0859V41.2359H77.0515L76.9661 41.0288L76.8274 41.0859ZM75.6541 38.2383L75.7928 38.1811L75.6537 37.8435L75.5153 38.1814L75.6541 38.2383ZM73.4085 43.5727H72.5647V43.8727H73.4085V43.5727ZM72.7028 43.7813L75.3703 37.4971L75.0942 37.3799L72.4267 43.664L72.7028 43.7813ZM75.2322 37.5885H76.1331V37.2885H75.2322V37.5885ZM75.9951 37.4973L78.6758 43.7815L78.9517 43.6638L76.2711 37.3796L75.9951 37.4973ZM78.8138 43.5727H77.9129V43.8727H78.8138V43.5727ZM78.0516 43.6656L77.2386 41.6881L76.9612 41.8022L77.7742 43.7797L78.0516 43.6656ZM77.0999 41.5951H75.0213V41.8951H77.0999V41.5951ZM75.1633 41.7934L75.3874 41.1342L75.1034 41.0377L74.8793 41.6968L75.1633 41.7934ZM75.2454 41.2359H76.8274V40.9359H75.2454V41.2359ZM76.9661 41.0288L75.7928 38.1811L75.5154 38.2954L76.6888 41.1431L76.9661 41.0288ZM75.5153 38.1814L73.2697 43.6658L73.5473 43.7795L75.7929 38.2951L75.5153 38.1814ZM81.8337 37.4385H81.9837V37.2885H81.8337V37.4385ZM81.8337 43.0635H81.6837V43.2135H81.8337V43.0635ZM85.1208 43.0635H85.2708V42.9135H85.1208V43.0635ZM85.1208 43.7227V43.8727H85.2708V43.7227H85.1208ZM81.0207 43.7227H80.8707V43.8727H81.0207V43.7227ZM81.0207 37.4385V37.2885H80.8707V37.4385H81.0207ZM81.6837 37.4385V43.0635H81.9837V37.4385H81.6837ZM81.8337 43.2135H85.1208V42.9135H81.8337V43.2135ZM84.9708 43.0635V43.7227H85.2708V43.0635H84.9708ZM85.1208 43.5727H81.0207V43.8727H85.1208V43.5727ZM81.1707 43.7227V37.4385H80.8707V43.7227H81.1707ZM81.0207 37.5885H81.8337V37.2885H81.0207V37.5885ZM91.6827 37.4385H91.8327V37.2885H91.6827V37.4385ZM91.6827 38.0977V38.2477H91.8327V38.0977H91.6827ZM89.7052 38.0977V37.9477H89.5552V38.0977H89.7052ZM89.7052 43.7227V43.8727H89.8552V43.7227H89.7052ZM88.8922 43.7227H88.7422V43.8727H88.8922V43.7227ZM88.8922 38.0977H89.0422V37.9477H88.8922V38.0977ZM86.9146 38.0977H86.7646V38.2477H86.9146V38.0977ZM86.9146 37.4385V37.2885H86.7646V37.4385H86.9146ZM91.5327 37.4385V38.0977H91.8327V37.4385H91.5327ZM91.6827 37.9477H89.7052V38.2477H91.6827V37.9477ZM89.5552 38.0977V43.7227H89.8552V38.0977H89.5552ZM89.7052 43.5727H88.8922V43.8727H89.7052V43.5727ZM89.0422 43.7227V38.0977H88.7422V43.7227H89.0422ZM88.8922 37.9477H86.9146V38.2477H88.8922V37.9477ZM87.0646 38.0977V37.4385H86.7646V38.0977H87.0646ZM86.9146 37.5885H91.6827V37.2885H86.9146V37.5885ZM94.0039 43.7227H93.8539V43.8727H94.0039V43.7227ZM94.0039 37.4385V37.2885H93.8539V37.4385H94.0039ZM94.8169 37.4385H94.9669V37.2885H94.8169V37.4385ZM94.8169 40.207H94.6669V40.357H94.8169V40.207ZM98.5303 40.207V40.357H98.6803V40.207H98.5303ZM98.5303 37.4385V37.2885H98.3803V37.4385H98.5303ZM99.3433 37.4385H99.4933V37.2885H99.3433V37.4385ZM99.3433 43.7227V43.8727H99.4933V43.7227H99.3433ZM98.5303 43.7227H98.3803V43.8727H98.5303V43.7227ZM98.5303 40.8662H98.6803V40.7162H98.5303V40.8662ZM94.8169 40.8662V40.7162H94.6669V40.8662H94.8169ZM94.8169 43.7227V43.8727H94.9669V43.7227H94.8169ZM94.1539 43.7227V37.4385H93.8539V43.7227H94.1539ZM94.0039 37.5885H94.8169V37.2885H94.0039V37.5885ZM94.6669 37.4385V40.207H94.9669V37.4385H94.6669ZM94.8169 40.357H98.5303V40.057H94.8169V40.357ZM98.6803 40.207V37.4385H98.3803V40.207H98.6803ZM98.5303 37.5885H99.3433V37.2885H98.5303V37.5885ZM99.1933 37.4385V43.7227H99.4933V37.4385H99.1933ZM99.3433 43.5727H98.5303V43.8727H99.3433V43.5727ZM98.6803 43.7227V40.8662H98.3803V43.7227H98.6803ZM98.5303 40.7162H94.8169V41.0162H98.5303V40.7162ZM94.6669 40.8662V43.7227H94.9669V40.8662H94.6669ZM94.8169 43.5727H94.0039V43.8727H94.8169V43.5727Z" fill="#070932"/>
</svg>
