<svg width="136" height="50" viewBox="0 0 136 50" fill="none" xmlns="http://www.w3.org/2000/svg">
<g clip-path="url(#clip0_51_315)">
<path d="M28.0421 38.4728V8.01787H11.2202L17.6318 0.00341797L35.9385 0.00341957V28.8554L28.0421 38.4728Z" fill="#070932"/>
<path d="M7.89636 11.2246L7.89635 41.6796H24.7183L18.3067 49.694H0L5.07609e-06 20.842L7.89636 11.2246Z" fill="#070932"/>
<path d="M58.965 10.8613V24.2879H65.3203V26.8613H56V10.8613H58.965Z" fill="#070932"/>
<path d="M81.3738 10.8613V13.4124H73.3626V17.4403H80.9934V20.0921H73.329V24.2879H81.5304V26.8613H70.4199V10.8613H81.3738Z" fill="#070932"/>
<path d="M101.803 10.8613L94.7869 26.8613H91.5981L84.8848 10.8613H88.4093L93.3659 23.1131L98.3114 10.8613H101.803Z" fill="#070932"/>
<path d="M116.726 10.8613V13.4124H108.715V17.4403H116.346V20.0921H108.681V24.2879H116.883V26.8613H105.772V10.8613H116.726Z" fill="#070932"/>
<path d="M121.916 26.839V10.8613H129.188C132.455 10.8613 134.089 12.2898 134.089 15.1466C134.089 17.0786 132.817 18.6786 130.274 19.9466L135.342 26.8613H131.605L126.738 19.8907V18.5369C129.572 18.052 130.99 16.9518 130.99 15.2362C130.99 14.0576 130.326 13.4683 128.998 13.4683H124.936V26.839H121.916Z" fill="#070932"/>
<path d="M134.724 34.7158V35.7178H131.578V37.2998H134.575V38.3413H131.564V39.9893H134.786V41H130.422V34.7158H134.724Z" fill="#070932"/>
<path d="M128.243 40.7363C127.701 40.9414 127.086 41.0439 126.397 41.0439C124.142 41.0439 123.014 39.9526 123.014 37.77C123.014 35.7046 124.142 34.6719 126.397 34.6719C127.086 34.6719 127.701 34.7744 128.243 34.9795V36.0342C127.701 35.7998 127.115 35.6826 126.485 35.6826C124.977 35.6826 124.222 36.3784 124.222 37.77C124.222 39.2788 124.977 40.0332 126.485 40.0332C127.115 40.0332 127.701 39.916 128.243 39.6816V40.7363Z" fill="#070932"/>
<path d="M120.831 34.7158V41H119.666V34.7158H120.831Z" fill="#070932"/>
<path d="M117.598 34.7158V35.7178H114.627V37.2998H117.448V38.3413H114.614V41H113.471V34.7158H117.598Z" fill="#070932"/>
<path d="M111.402 34.7158V35.7178H108.432V37.2998H111.253V38.3413H108.418V41H107.276V34.7158H111.402Z" fill="#070932"/>
<path d="M100.039 37.8403C100.039 39.3022 100.688 40.0332 101.986 40.0332C103.251 40.0332 103.884 39.3022 103.884 37.8403C103.884 36.4019 103.251 35.6826 101.986 35.6826C100.688 35.6826 100.039 36.4019 100.039 37.8403ZM98.8306 37.8667C98.8306 35.7368 99.8823 34.6719 101.986 34.6719C104.057 34.6719 105.093 35.7368 105.093 37.8667C105.093 39.9849 104.057 41.0439 101.986 41.0439C99.9761 41.0439 98.9243 39.9849 98.8306 37.8667Z" fill="#070932"/>
<path d="M88.6504 34.7158H89.9028L91.6694 37.7437L93.3306 34.7158H94.5391L92.2275 38.8027V41H91.063V38.8027L88.6504 34.7158Z" fill="#070932"/>
<path d="M84.5205 34.7158V39.9893H87.0166V41H83.356V34.7158H84.5205Z" fill="#070932"/>
<path d="M80.9536 34.7158V41H79.7891V34.7158H80.9536Z" fill="#070932"/>
<path d="M70.7988 41V34.7158H72.0073L74.1387 39.4839L76.2261 34.7158H77.3906V41H76.314V36.623L74.6089 41H73.6157L71.8755 36.623V41H70.7988Z" fill="#070932"/>
<path d="M63.5005 41H62.3052L64.9727 34.7158H66.2251L68.9497 41H67.6973L66.981 39.2861H64.8936L65.2935 38.2754H66.5591L65.5703 35.9155L63.5005 41Z" fill="#070932"/>
<path d="M60.7856 34.7158V35.7178H57.8149V37.2998H60.6362V38.3413H57.8018V41H56.6592V34.7158H60.7856Z" fill="#070932"/>
</g>
<defs>
<clipPath id="clip0_51_315">
<rect width="136" height="50" fill="white"/>
</clipPath>
</defs>
</svg>
