<svg width="105" height="80" viewBox="0 0 105 80" fill="none" xmlns="http://www.w3.org/2000/svg">
<path d="M32.7075 63.0189C32.7075 72.1318 25.4871 79.5 16.6038 79.5C7.72044 79.5 0.5 72.1318 0.5 63.0189C0.5 53.9059 7.72044 46.5377 16.6038 46.5377C25.4871 46.5377 32.7075 53.9059 32.7075 63.0189Z" stroke="#070932"/>
<path d="M32.7075 40.3774C32.7075 49.4903 25.4871 56.8585 16.6038 56.8585C7.72044 56.8585 0.5 49.4903 0.5 40.3774C0.5 31.2644 7.72044 23.8962 16.6038 23.8962C25.4871 23.8962 32.7075 31.2644 32.7075 40.3774Z" stroke="#070932"/>
<path d="M32.7075 16.9811C32.7075 26.0941 25.4871 33.4623 16.6038 33.4623C7.72044 33.4623 0.5 26.0941 0.5 16.9811C0.5 7.8682 7.72044 0.5 16.6038 0.5C25.4871 0.5 32.7075 7.8682 32.7075 16.9811Z" stroke="#070932"/>
<path d="M80.2543 63.0189C80.2543 72.1211 72.8754 79.5 63.7731 79.5C54.6708 79.5 47.292 72.1211 47.292 63.0189C47.292 53.9166 54.6708 46.5377 63.7731 46.5377C72.8754 46.5377 80.2543 53.9166 80.2543 63.0189Z" stroke="#070932"/>
<path d="M80.2543 40.3774C80.2543 49.4796 72.8754 56.8585 63.7731 56.8585C54.6708 56.8585 47.292 49.4796 47.292 40.3774C47.292 31.2751 54.6708 23.8962 63.7731 23.8962C72.8754 23.8962 80.2543 31.2751 80.2543 40.3774Z" stroke="#070932"/>
<path d="M80.2543 16.9811C80.2543 26.0834 72.8754 33.4623 63.7731 33.4623C54.6708 33.4623 47.292 26.0834 47.292 16.9811C47.292 7.87885 54.6708 0.5 63.7731 0.5C72.8754 0.5 80.2543 7.87885 80.2543 16.9811Z" stroke="#070932"/>
<path d="M56.8587 63.0189C56.8587 72.1211 49.4799 79.5 40.3776 79.5C31.2753 79.5 23.8965 72.1211 23.8965 63.0189C23.8965 53.9166 31.2753 46.5377 40.3776 46.5377C49.4799 46.5377 56.8587 53.9166 56.8587 63.0189Z" stroke="#070932"/>
<path d="M56.8587 40.3774C56.8587 49.4796 49.4799 56.8585 40.3776 56.8585C31.2753 56.8585 23.8965 49.4796 23.8965 40.3774C23.8965 31.2751 31.2753 23.8962 40.3776 23.8962C49.4799 23.8962 56.8587 31.2751 56.8587 40.3774Z" stroke="#070932"/>
<path d="M56.8587 16.9811C56.8587 26.0834 49.4799 33.4623 40.3776 33.4623C31.2753 33.4623 23.8965 26.0834 23.8965 16.9811C23.8965 7.87885 31.2753 0.5 40.3776 0.5C49.4799 0.5 56.8587 7.87885 56.8587 16.9811Z" stroke="#070932"/>
<path d="M103.651 63.0189C103.651 72.1318 96.4305 79.5 87.5471 79.5C78.6638 79.5 71.4434 72.1318 71.4434 63.0189C71.4434 53.9059 78.6638 46.5377 87.5471 46.5377C96.4305 46.5377 103.651 53.9059 103.651 63.0189Z" stroke="#070932"/>
<path d="M103.651 40.3774C103.651 49.4903 96.4305 56.8585 87.5471 56.8585C78.6638 56.8585 71.4434 49.4903 71.4434 40.3774C71.4434 31.2644 78.6638 23.8962 87.5471 23.8962C96.4305 23.8962 103.651 31.2644 103.651 40.3774Z" stroke="#070932"/>
<path d="M103.651 16.9811C103.651 26.0941 96.4305 33.4623 87.5471 33.4623C78.6638 33.4623 71.4434 26.0941 71.4434 16.9811C71.4434 7.8682 78.6638 0.5 87.5471 0.5C96.4305 0.5 103.651 7.8682 103.651 16.9811Z" stroke="#070932"/>
</svg>
