<svg width="258" height="27" viewBox="0 0 258 27" fill="none" xmlns="http://www.w3.org/2000/svg">
<path d="M0.509766 5.7041C0.509766 5.14746 0.612305 4.63477 0.817383 4.16602C1.02246 3.6875 1.30566 3.27734 1.66699 2.93555C2.02832 2.58398 2.41406 2.28613 2.82422 2.04199C3.22461 1.79785 3.66406 1.58301 4.14258 1.39746C5.99805 0.694336 8.58594 0.342773 11.9062 0.342773C15.0215 0.342773 18.4736 0.767578 22.2627 1.61719C26.0615 2.45703 29.1865 3.5459 31.6377 4.88379C32.1064 5.1377 32.6191 5.46484 33.1758 5.86523C33.7324 6.25586 34.1475 6.60742 34.4209 6.91992C35.1924 7.82812 35.5781 8.64844 35.5781 9.38086C35.5781 9.73242 35.5 10.084 35.3438 10.4355C34.9531 11.2852 34.1279 12.0664 32.8682 12.7793C29.9971 14.4102 24.8945 15.7627 17.5605 16.8369C17.1504 16.9053 16.7891 16.959 16.4766 16.998C16.291 17.0176 16.1836 17.0469 16.1543 17.0859C16.1348 17.1055 16.1055 17.1445 16.0664 17.2031C15.5391 17.9844 15.002 18.8975 14.4551 19.9424C13.918 20.9775 13.5908 21.8076 13.4736 22.4326C13.4053 22.7744 13.3174 22.9697 13.21 23.0186C13.1807 23.0283 13.1465 23.0332 13.1074 23.0332C13.0391 23.0332 12.9609 23.0137 12.873 22.9746C12.6191 22.8672 12.4922 22.6621 12.4922 22.3594C12.4922 22.2812 12.4971 22.2178 12.5068 22.1689C12.585 21.7002 12.7852 21.0898 13.1074 20.3379C13.293 19.918 13.5664 19.3809 13.9277 18.7266L14.7773 17.2178C14.1914 17.2861 13.8936 17.3203 13.8838 17.3203C13.6787 17.3203 13.5371 17.291 13.459 17.2324C13.2637 17.1055 13.166 16.9395 13.166 16.7344C13.166 16.5293 13.3223 16.4072 13.6348 16.3682C13.9375 16.3291 14.4014 16.2705 15.0264 16.1924C15.085 16.1826 15.1484 16.1777 15.2168 16.1777C15.2852 16.168 15.334 16.1631 15.3633 16.1631C15.3926 16.1631 15.4219 16.1582 15.4512 16.1484C15.4902 16.1289 15.5195 16.1094 15.5391 16.0898C15.5586 16.0703 15.583 16.041 15.6123 16.002C15.9834 15.4355 16.4668 14.7471 17.0625 13.9365C17.668 13.1162 18.1855 12.457 18.6152 11.959L19.333 11.1094C19.3916 11.0508 19.5527 10.8701 19.8164 10.5674C20.0898 10.2646 20.3242 10.0107 20.5195 9.80566C20.7148 9.60059 20.9492 9.37109 21.2227 9.11719C21.5059 8.86328 21.7695 8.66797 22.0137 8.53125C22.2676 8.39453 22.4922 8.32617 22.6875 8.32617C22.7461 8.32617 22.79 8.33105 22.8193 8.34082C23.0342 8.37988 23.2002 8.49219 23.3174 8.67773C23.4443 8.86328 23.5078 9.08789 23.5078 9.35156C23.5078 9.70312 23.4541 9.97168 23.3467 10.1572C23.2393 10.333 23.1074 10.4209 22.9512 10.4209C22.8047 10.4209 22.6631 10.3379 22.5264 10.1719C22.4971 10.123 22.4727 10.0791 22.4531 10.04C22.4336 10.001 22.4189 9.95703 22.4092 9.9082C22.4092 9.85938 22.4092 9.8252 22.4092 9.80566C22.4189 9.77637 22.4287 9.72754 22.4385 9.65918C22.458 9.59082 22.4678 9.54199 22.4678 9.5127C22.2236 9.62012 21.6914 10.1035 20.8711 10.9629C20.5879 11.2559 20.1973 11.7002 19.6992 12.2959C19.2109 12.8916 18.918 13.248 18.8203 13.3652C18.7422 13.4531 18.5273 13.7314 18.1758 14.2002L17.2383 15.4893C17.0625 15.7139 16.9648 15.8604 16.9453 15.9287C17.3359 15.8994 18.332 15.7432 19.9336 15.46C20.6367 15.3428 21.6084 15.1621 22.8486 14.918C27.8584 13.9023 31.2715 12.7305 33.0879 11.4023C33.9766 10.7578 34.4795 10.1035 34.5967 9.43945C34.6162 9.2832 34.626 9.18066 34.626 9.13184C34.626 8.86816 34.5527 8.59961 34.4062 8.32617C34.2598 8.04297 34.1328 7.84766 34.0254 7.74023C33.9277 7.62305 33.7471 7.42773 33.4834 7.1543L32.502 6.40723C32.1504 6.16309 31.7939 5.94336 31.4326 5.74805C29.1865 4.53711 26.6914 3.59961 23.9473 2.93555C19.4746 1.8418 15.4365 1.29492 11.833 1.29492C11.374 1.29492 10.9199 1.30469 10.4707 1.32422C10.0312 1.34375 9.50391 1.37793 8.88867 1.42676C8.2832 1.47559 7.70703 1.55371 7.16016 1.66113C6.62305 1.75879 6.06152 1.88574 5.47559 2.04199C4.88965 2.18848 4.36719 2.38379 3.9082 2.62793C3.44922 2.87207 3.0293 3.15039 2.64844 3.46289C2.26758 3.76562 1.97461 4.13672 1.76953 4.57617C1.56445 5.01562 1.46191 5.49902 1.46191 6.02637C1.46191 6.3877 1.51562 6.76367 1.62305 7.1543C1.7207 7.54492 1.81348 7.8623 1.90137 8.10645C1.98926 8.35059 2.16992 8.69727 2.44336 9.14648C2.7168 9.5957 2.89258 9.87891 2.9707 9.99609C3.04883 10.1133 3.25879 10.4209 3.60059 10.9189C3.70801 11.0654 3.83984 11.2363 3.99609 11.4316C4.16211 11.6465 4.37695 11.9053 4.64062 12.208C4.9043 12.5107 5.08496 12.7207 5.18262 12.8379L6.01758 13.7461C6.02734 13.7559 6.04688 13.7803 6.07617 13.8193C6.11523 13.8486 6.13965 13.873 6.14941 13.8926C6.16895 13.9023 6.19336 13.9268 6.22266 13.9658C6.25195 14.0049 6.27148 14.0391 6.28125 14.0684C6.29102 14.0977 6.2959 14.1367 6.2959 14.1855C6.30566 14.2246 6.31055 14.2686 6.31055 14.3174C6.29102 14.4443 6.22754 14.5371 6.12012 14.5957C6.02246 14.6445 5.90039 14.6396 5.75391 14.5811C5.63672 14.542 5.26074 14.1758 4.62598 13.4824L3.64453 12.3252C3.42969 12.0615 3.29785 11.9004 3.24902 11.8418C2.8584 11.3438 2.53125 10.8994 2.26758 10.5088C1.99414 10.1084 1.71094 9.63965 1.41797 9.10254C1.125 8.55566 0.900391 7.99902 0.744141 7.43262C0.587891 6.85645 0.509766 6.28027 0.509766 5.7041Z" fill="#2A2B4E"/>
<path d="M43.0166 20.1768L42.9873 20.1328C42.9873 20.1328 42.9873 20.084 42.9873 19.9863C42.9873 19.9473 43.1777 19.5811 43.5586 18.8877C43.8809 18.3115 44.3594 17.4424 44.9941 16.2803C45.6387 15.1182 46.1221 14.2441 46.4443 13.6582L46.5322 13.5117L46.2246 13.8193L45.1992 14.8447C45.1602 14.8838 45.1211 14.9229 45.082 14.9619C45.043 15.001 44.999 15.04 44.9502 15.0791C44.9014 15.1084 44.8623 15.1377 44.833 15.167C43.583 16.3193 42.6455 16.9639 42.0205 17.1006C41.9033 17.1201 41.8105 17.1299 41.7422 17.1299C41.4199 17.1299 41.166 17.0371 40.9805 16.8516C40.7754 16.6465 40.6729 16.2998 40.6729 15.8115C40.6631 15.8115 40.0527 15.9727 38.8418 16.2949C37.6406 16.6172 36.7959 16.7783 36.3076 16.7783C36.0244 16.7783 35.8242 16.7393 35.707 16.6611C35.6191 16.6123 35.5557 16.5635 35.5166 16.5146C35.4775 16.4561 35.4434 16.3926 35.4141 16.3242C35.3848 16.2461 35.3652 16.1973 35.3555 16.1777V15.958C35.3848 15.9189 35.4189 15.8604 35.458 15.7822C35.5068 15.6943 35.5508 15.6309 35.5898 15.5918C35.9902 15.1914 36.7617 14.9424 37.9043 14.8447H38.0215C38.1973 14.8447 38.3242 14.8789 38.4023 14.9473C38.4902 15.0156 38.5781 15.1328 38.666 15.2988C39.0664 15.2109 39.7988 15.0107 40.8633 14.6982C41.1367 14.6201 41.332 14.6055 41.4492 14.6543C41.6934 14.7617 41.8154 14.9326 41.8154 15.167C41.8154 15.2744 41.7812 15.4453 41.7129 15.6797C41.6543 15.9043 41.625 16.0605 41.625 16.1484C41.9375 16.0801 42.3525 15.8457 42.8701 15.4453C43.3975 15.0449 43.8662 14.6445 44.2764 14.2441C44.3252 14.1855 44.4033 14.1123 44.5107 14.0244C44.6182 13.9365 44.7012 13.8633 44.7598 13.8047L47.9824 10.2744C48.1094 10.1377 48.29 9.92285 48.5244 9.62988C48.7588 9.33691 48.9199 9.1416 49.0078 9.04395L49.1396 8.86816C49.4229 8.37012 49.8477 7.62305 50.4141 6.62695C50.9902 5.63086 51.4199 4.88379 51.7031 4.38574C52.8652 2.35449 53.5635 1.16309 53.7979 0.811523C53.8271 0.762695 53.8516 0.733398 53.8711 0.723633C53.8906 0.704102 53.915 0.68457 53.9443 0.665039C53.9834 0.645508 54.0225 0.625977 54.0615 0.606445H54.2227C54.2324 0.616211 54.2764 0.635742 54.3545 0.665039C54.4424 0.694336 54.5059 0.733398 54.5449 0.782227C54.584 0.821289 54.6279 0.884766 54.6768 0.972656C54.7549 1.14844 54.7158 1.35352 54.5596 1.58789C54.5107 1.65625 54.4473 1.75879 54.3691 1.89551C54.291 2.02246 54.2422 2.10547 54.2227 2.14453C53.8516 2.75977 53.4512 3.43848 53.0215 4.18066C52.4453 5.17676 51.1074 7.53516 49.0078 11.2559C46.7227 15.3379 45.5605 17.4131 45.5215 17.4814C46.3418 16.8369 46.957 16.3486 47.3672 16.0166C48.0996 15.46 48.7441 15.1133 49.3008 14.9766C49.418 14.9473 49.5352 14.9326 49.6523 14.9326C49.9746 14.9326 50.2383 15.04 50.4434 15.2549C50.6582 15.46 50.7656 15.7236 50.7656 16.0459C50.7656 16.2217 50.7412 16.3779 50.6924 16.5146C50.5166 17.0518 50.0332 17.6475 49.2422 18.3018C48.4609 18.9561 47.7676 19.4053 47.1621 19.6494C47.0059 19.708 46.8691 19.7373 46.752 19.7373C46.5566 19.7373 46.376 19.6396 46.21 19.4443C46.1221 19.3369 46.0781 19.2246 46.0781 19.1074C46.0781 18.9121 46.1758 18.707 46.3711 18.4922C46.6543 18.1797 46.874 17.9551 47.0303 17.8184C47.2158 17.6719 47.3818 17.623 47.5283 17.6719C47.5869 17.7012 47.6309 17.7256 47.6602 17.7451C47.7285 17.7842 47.7773 17.833 47.8066 17.8916C47.8359 17.9404 47.8555 17.9697 47.8652 17.9795C47.875 17.9893 47.8896 17.9941 47.9092 17.9941C47.9385 17.9844 47.9922 17.9502 48.0703 17.8916C48.4512 17.6084 48.8223 17.2812 49.1836 16.9102C49.5449 16.5391 49.75 16.2021 49.7988 15.8994L49.7402 15.9141C49.5645 15.9434 49.3447 16.0264 49.0811 16.1631C48.8271 16.29 48.5391 16.4756 48.2168 16.7197C47.8945 16.9541 47.626 17.1543 47.4111 17.3203C47.2061 17.4863 46.9277 17.7158 46.5762 18.0088C46.2344 18.292 46.0439 18.4531 46.0049 18.4922C45.5947 18.8438 45.1016 19.2979 44.5254 19.8545C44.4961 19.8838 44.4277 19.957 44.3203 20.0742C44.2227 20.1816 44.1396 20.2695 44.0713 20.3379C44.0029 20.4062 43.9199 20.4746 43.8223 20.543C43.7246 20.6016 43.6416 20.6309 43.5732 20.6309C43.3389 20.6309 43.1533 20.4795 43.0166 20.1768Z" fill="#2A2B4E"/>
<path d="M52.7988 22.8281L52.8281 22.6963C52.916 22.2568 53.0674 21.7441 53.2822 21.1582C53.7217 19.9473 54.625 17.9746 55.9922 15.2402C56.0508 15.1328 56.1289 14.9863 56.2266 14.8008C56.3242 14.6055 56.4121 14.4297 56.4902 14.2734C56.5781 14.1172 56.6562 13.9658 56.7246 13.8193C56.8125 13.6338 56.9443 13.375 57.1201 13.043C57.2959 12.7109 57.4082 12.501 57.457 12.4131C57.6719 12.0029 57.7988 11.7686 57.8379 11.71C57.8672 11.6611 57.9258 11.5586 58.0137 11.4023C58.1016 11.2363 58.1699 11.1094 58.2188 11.0215C58.2969 10.8848 58.4238 10.6553 58.5996 10.333C58.6191 10.2939 59.2832 9.15625 60.5918 6.91992C60.8652 6.44141 61.1387 5.99707 61.4121 5.58691C62.0957 4.52246 62.7109 3.60938 63.2578 2.84766L64.0928 1.82227L64.6348 1.28027C64.7324 1.18262 64.8203 1.10938 64.8984 1.06055C64.9766 1.01172 65.0498 0.972656 65.1182 0.943359C65.1963 0.914062 65.2549 0.889648 65.2939 0.870117H65.6455C65.6553 0.870117 65.6895 0.889648 65.748 0.928711C65.8066 0.958008 65.8506 0.987305 65.8799 1.0166C65.9092 1.0459 65.9482 1.08496 65.9971 1.13379C66.0459 1.17285 66.0801 1.22656 66.0996 1.29492C66.1191 1.35352 66.124 1.41699 66.1143 1.48535C66.1045 1.60254 66.0703 1.68555 66.0117 1.73438C65.9531 1.77344 65.8652 1.80762 65.748 1.83691C65.6406 1.85645 65.5527 1.89062 65.4844 1.93945L64.4443 3.05273C64.2197 3.32617 63.9561 3.68262 63.6533 4.12207C63.3604 4.55176 63.1748 4.82031 63.0967 4.92773C63.0381 5.01562 62.9551 5.1377 62.8477 5.29395C62.75 5.4502 62.6914 5.54297 62.6719 5.57227C62.4473 5.9043 62.1299 6.40723 61.7197 7.08105C61.3193 7.74512 61.085 8.13086 61.0166 8.23828C60.7822 8.59961 60.5332 9.01465 60.2695 9.4834C60.0059 9.95215 59.7129 10.4746 59.3906 11.0508C59.0781 11.627 58.8438 12.0566 58.6875 12.3398L57.9404 13.7461C57.5205 14.5273 57.2715 15.001 57.1934 15.167C57.1055 15.3428 56.9785 15.5918 56.8125 15.9141C56.6465 16.2266 56.5342 16.4463 56.4756 16.5732C55.5479 18.4873 54.874 19.9668 54.4541 21.0117C54.1221 21.7832 53.9365 22.3057 53.8975 22.5791C53.9365 22.5498 53.9854 22.5059 54.0439 22.4473C54.0928 22.3789 54.1318 22.3301 54.1611 22.3008C54.1807 22.2812 54.21 22.2568 54.249 22.2275C54.2881 22.1885 54.3223 22.1543 54.3516 22.125C54.3711 22.0957 54.3955 22.0664 54.4248 22.0371L55.626 20.5723C55.6553 20.5332 55.6943 20.4844 55.7432 20.4258C55.792 20.3672 55.8311 20.3184 55.8604 20.2793L56.3145 19.6641C56.4512 19.4883 56.6025 19.2881 56.7686 19.0635C56.8271 18.9951 56.8613 18.9561 56.8711 18.9463C56.8809 18.9268 56.915 18.8926 56.9736 18.8438C57.0322 18.7852 57.0762 18.7559 57.1055 18.7559C57.1445 18.7461 57.1982 18.7461 57.2666 18.7559C57.335 18.7656 57.4033 18.79 57.4717 18.8291C57.5791 18.8877 57.667 18.9902 57.7354 19.1367C57.8037 19.2734 57.8037 19.4053 57.7354 19.5322C57.7061 19.5908 57.667 19.6445 57.6182 19.6934C57.5791 19.752 57.5449 19.8008 57.5156 19.8398C56.666 20.9824 56.124 21.6807 55.8896 21.9346C55.8408 21.9834 55.7627 22.0762 55.6553 22.2129C55.5576 22.3496 55.4746 22.4521 55.4062 22.5205C55.1719 22.7744 55.001 22.96 54.8936 23.0771C54.5225 23.5068 54.1855 23.7852 53.8828 23.9121C53.8633 23.9219 53.834 23.9365 53.7949 23.9561C53.7461 23.9658 53.7119 23.9756 53.6924 23.9854H53.4287C53.3896 23.9658 53.3506 23.9463 53.3115 23.9268C53.2627 23.9072 53.2236 23.8926 53.1943 23.8828C53.165 23.8633 53.1357 23.8438 53.1064 23.8242C53.0674 23.7949 53.0332 23.7607 53.0039 23.7217C52.9648 23.6631 52.9209 23.5898 52.8721 23.502C52.8623 23.4824 52.8525 23.4434 52.8428 23.3848C52.8232 23.3262 52.8086 23.2822 52.7988 23.2529V22.8281Z" fill="#2A2B4E"/>
<path d="M62.4785 16.8955C62.6543 17.0322 62.9521 17.1006 63.3721 17.1006C63.6553 17.1006 63.875 17.0518 64.0312 16.9541C64.0117 16.8662 63.9189 16.7539 63.7529 16.6172C63.6553 16.5293 63.582 16.4854 63.5332 16.4854C63.4941 16.4756 63.4307 16.4902 63.3428 16.5293C62.9717 16.6562 62.6836 16.7783 62.4785 16.8955ZM69.5244 16.3096L69.3926 16.4854C69.2852 16.583 68.8311 16.6318 68.0303 16.6318C67.8838 16.6318 67.7129 16.6318 67.5176 16.6318C67.332 16.6221 67.2295 16.6172 67.21 16.6172C66.9268 16.6074 66.5117 16.583 65.9648 16.5439C65.4277 16.4951 65.0225 16.4658 64.749 16.4561C64.7588 16.4951 64.7832 16.5537 64.8223 16.6318C64.8711 16.7002 64.9053 16.7637 64.9248 16.8223C64.9834 16.959 65.0029 17.1104 64.9834 17.2764C64.915 17.7842 64.4707 18.0381 63.6504 18.0381C63.2891 18.0381 62.9766 17.999 62.7129 17.9209C62.3223 17.8135 62 17.6523 61.7461 17.4375C61.4922 17.2129 61.3652 16.9834 61.3652 16.749C61.3652 16.4072 61.6484 16.1094 62.2148 15.8555C62.4395 15.748 62.6934 15.6504 62.9766 15.5625C63.2207 15.4844 63.4258 15.4453 63.5918 15.4453C63.6211 15.4453 63.6699 15.4502 63.7383 15.46C63.8066 15.46 63.8652 15.46 63.9141 15.46C64.2363 15.4697 64.8223 15.5088 65.6719 15.5771C66.5215 15.6455 67.2295 15.6797 67.7959 15.6797H67.9424C68.0596 15.6797 68.2158 15.6699 68.4111 15.6504C68.6064 15.6309 68.7432 15.6211 68.8213 15.6211C69.1045 15.6211 69.3047 15.7188 69.4219 15.9141L69.5244 16.1045V16.3096Z" fill="#2A2B4E"/>
<path d="M78.3369 9.68848L78.7178 9.0293C79.1084 8.60938 79.7041 8.18945 80.5049 7.76953C82.1357 6.94922 84.1719 6.33887 86.6133 5.93848C89.0645 5.52832 91.6523 5.32324 94.377 5.32324C98.752 5.32324 102.37 5.73828 105.231 6.56836C108.239 7.42773 109.812 8.57031 109.948 9.99609V10.1719C109.948 10.7188 109.782 11.1875 109.45 11.5781C109.411 11.6172 109.343 11.7051 109.245 11.8418C109.147 11.9688 109.06 12.0664 108.981 12.1348L107.854 13.0137C107.17 13.4434 106.535 13.8047 105.949 14.0977C103.898 15.1328 100.915 16.2119 96.999 17.335L93.8643 18.1992C93.9912 18.248 94.2646 18.3359 94.6846 18.4629C95.1143 18.5898 95.5879 18.7266 96.1055 18.873C96.623 19.0195 96.9551 19.1172 97.1016 19.166C103.605 21.1484 108.664 22.3105 112.277 22.6523C112.697 22.6914 112.961 22.7744 113.068 22.9014C113.156 23.0088 113.2 23.1309 113.2 23.2676C113.21 23.4043 113.156 23.5117 113.039 23.5898C112.98 23.6191 112.878 23.6338 112.731 23.6338C112.155 23.6338 111.066 23.4873 109.465 23.1943C107.873 22.9014 106.701 22.667 105.949 22.4912C104.406 22.1396 102.209 21.5586 99.3574 20.748C98.8398 20.6016 97.8389 20.3086 96.3545 19.8691C94.8799 19.4199 93.7324 19.0928 92.9121 18.8877C92.4824 18.7803 92.1943 18.7119 92.0479 18.6826C91.7158 18.6143 91.5059 18.4824 91.418 18.2871C91.3887 18.1992 91.374 18.126 91.374 18.0674C91.374 17.9795 91.3984 17.9062 91.4473 17.8477C91.4961 17.7891 91.5693 17.7402 91.667 17.7012C91.7744 17.6621 91.8672 17.6328 91.9453 17.6133C92.0234 17.584 92.1309 17.5596 92.2676 17.54C92.4141 17.5107 92.5117 17.4912 92.5605 17.4814C100.119 15.6064 105.163 13.7217 107.692 11.8271C108.562 11.1826 108.996 10.5771 108.996 10.0107C108.996 9.18066 108.02 8.42871 106.066 7.75488C103.215 6.76855 99.4307 6.27539 94.7139 6.27539C93.6494 6.27539 92.4385 6.31934 91.0811 6.40723C88.1416 6.62207 85.749 7.00781 83.9033 7.56445C83.5713 7.66211 83.2002 7.78418 82.79 7.93066C82.3896 8.07715 81.8965 8.27734 81.3105 8.53125C80.7246 8.78516 80.2412 9.06348 79.8604 9.36621C79.4697 9.66895 79.2744 9.95703 79.2744 10.2305C79.2744 10.3867 79.3818 10.5771 79.5967 10.8018C79.8115 11.0264 80.0947 11.2607 80.4463 11.5049C80.8076 11.7393 81.1592 11.959 81.501 12.1641C81.8525 12.3691 82.2236 12.5889 82.6143 12.8232C83.0146 13.0479 83.293 13.209 83.4492 13.3066C85.0898 14.3613 86.2324 15.2842 86.877 16.0752C87.2578 16.5439 87.541 16.959 87.7266 17.3203C87.8633 17.5938 87.9561 17.7939 88.0049 17.9209C88.0537 18.0381 88.0977 18.1699 88.1367 18.3164C88.1758 18.4629 88.2295 18.624 88.2979 18.7998C88.3076 18.79 88.4883 18.5215 88.8398 17.9941C89.0352 17.6621 89.2109 17.3936 89.3672 17.1885L92.2236 13.3652C92.7803 12.7207 93.2051 12.252 93.498 11.959C93.5078 11.9492 93.5811 11.876 93.7178 11.7393C93.8545 11.5928 93.957 11.4854 94.0254 11.417C94.0938 11.3486 94.2012 11.2412 94.3477 11.0947C94.5039 10.9482 94.6357 10.8359 94.7432 10.7578C94.8604 10.6797 94.9873 10.5918 95.124 10.4941C95.2705 10.3965 95.4072 10.3281 95.5342 10.2891C95.6709 10.2402 95.7979 10.2158 95.915 10.2158C96.208 10.2158 96.4375 10.3721 96.6035 10.6846C96.6719 10.8115 96.7061 10.9824 96.7061 11.1973C96.7061 11.3828 96.6816 11.583 96.6328 11.7979C96.5449 12.1885 96.3984 12.3838 96.1934 12.3838C96.0762 12.3838 95.959 12.3301 95.8418 12.2227C95.7344 12.1055 95.666 11.998 95.6367 11.9004C95.5977 11.832 95.5928 11.7441 95.6221 11.6367C95.6611 11.5195 95.6807 11.4365 95.6807 11.3877C95.1631 11.8076 94.7773 12.1543 94.5234 12.4277C93.3906 13.6289 92.3799 14.8252 91.4912 16.0166C91.1885 16.4268 90.9834 16.7051 90.876 16.8516L88.5762 20.4258C88.4785 20.5918 88.3418 21.002 88.166 21.6562C87.9902 22.3105 87.7266 22.9648 87.375 23.6191C87.3652 23.6387 87.3262 23.7119 87.2578 23.8389C87.1992 23.9658 87.1504 24.0537 87.1113 24.1025C87.082 24.1514 87.0283 24.2051 86.9502 24.2637C86.8721 24.332 86.7939 24.3662 86.7158 24.3662H86.6865C86.335 24.3271 86.1592 24.1025 86.1592 23.6924C86.1592 23.2041 86.4277 22.3984 86.9648 21.2754C87.0137 21.1582 87.0771 21.0215 87.1553 20.8652C87.2432 20.6992 87.3018 20.5771 87.3311 20.499C87.3701 20.4209 87.4043 20.3184 87.4336 20.1914C87.4629 20.0645 87.4775 19.9277 87.4775 19.7812C87.4775 19.5273 87.4434 19.2246 87.375 18.873C87.2773 18.3652 87.0674 17.8672 86.7451 17.3789C86.4326 16.8809 86.1201 16.4658 85.8076 16.1338C85.5049 15.8018 85.0459 15.416 84.4307 14.9766C83.8252 14.5371 83.3809 14.2344 83.0977 14.0684C82.8242 13.8926 82.3457 13.6094 81.6621 13.2188C81.5645 13.1602 81.4912 13.1162 81.4424 13.0869C80.1143 12.3057 79.2598 11.6953 78.8789 11.2559C78.7422 11.0898 78.6445 10.958 78.5859 10.8604C78.5273 10.7627 78.4834 10.6699 78.4541 10.582C78.4248 10.4941 78.3857 10.4111 78.3369 10.333V9.68848Z" fill="#2A2B4E"/>
<path d="M113.314 15.416C113.412 15.3965 113.769 15.3037 114.384 15.1377C114.501 15.1084 114.677 15.0596 114.911 14.9912C115.146 14.9229 115.321 14.874 115.438 14.8447C115.663 14.7764 115.834 14.7422 115.951 14.7422C116.146 14.7422 116.298 14.835 116.405 15.0205C116.464 15.1279 116.493 15.2158 116.493 15.2842C116.493 15.3916 116.435 15.5234 116.317 15.6797C116.2 15.8359 116.137 15.9287 116.127 15.958C116.645 15.9189 117.616 15.6211 119.042 15.0645C119.091 15.0449 119.188 15.001 119.335 14.9326C119.481 14.8643 119.604 14.8154 119.701 14.7861C119.799 14.7471 119.892 14.7275 119.979 14.7275C120.126 14.7275 120.263 14.791 120.39 14.918C120.497 15.0254 120.551 15.1475 120.551 15.2842C120.551 15.4111 120.482 15.5918 120.346 15.8262C120.219 16.0508 120.146 16.1826 120.126 16.2217C120.165 16.2119 120.463 16.085 121.02 15.8408C121.586 15.5967 122.016 15.4746 122.309 15.4746C122.602 15.4746 122.836 15.5674 123.012 15.7529C123.148 15.8994 123.217 16.124 123.217 16.4268C123.217 16.583 123.212 16.7051 123.202 16.793C123.729 16.7539 124.525 16.5146 125.59 16.0752C125.619 16.0654 125.692 16.0312 125.81 15.9727C125.937 15.9043 126.044 15.8555 126.132 15.8262C126.22 15.7969 126.303 15.7822 126.381 15.7822C126.498 15.7822 126.601 15.8213 126.688 15.8994C126.864 16.0459 126.952 16.1924 126.952 16.3389C126.952 16.4268 126.918 16.5342 126.85 16.6611C126.791 16.7881 126.767 16.876 126.776 16.9248C126.815 16.9443 126.894 16.9541 127.011 16.9541C127.528 16.9541 128.402 16.7002 129.633 16.1924C129.701 16.1631 129.828 16.1045 130.014 16.0166C130.199 15.9287 130.37 15.8604 130.526 15.8115C130.683 15.7529 130.819 15.7236 130.937 15.7236C131.19 15.7236 131.356 15.8604 131.435 16.1338C131.483 16.2412 131.488 16.334 131.449 16.4121C131.41 16.4902 131.366 16.5488 131.317 16.5879C131.278 16.6172 131.21 16.6514 131.112 16.6904C129.394 17.4912 128.08 17.8916 127.172 17.8916C126.439 17.8916 126 17.623 125.854 17.0859C125.736 17.1152 125.556 17.1787 125.312 17.2764C125.077 17.374 124.916 17.4375 124.828 17.4668C124.389 17.6035 124.013 17.6914 123.7 17.7305C123.642 17.7402 123.554 17.7451 123.437 17.7451C123.056 17.7451 122.758 17.6377 122.543 17.4229C122.328 17.1982 122.226 16.8857 122.235 16.4854C121.815 16.5635 121.171 16.8369 120.302 17.3057C119.433 17.7646 118.954 17.9941 118.866 17.9941C118.749 17.9941 118.637 17.9453 118.529 17.8477C118.432 17.75 118.368 17.6475 118.339 17.54C118.31 17.4912 118.305 17.4229 118.324 17.335C118.354 17.2471 118.373 17.1885 118.383 17.1592C118.402 17.1201 118.437 17.0615 118.485 16.9834C118.534 16.9053 118.563 16.8516 118.573 16.8223C118.651 16.6855 118.759 16.4902 118.896 16.2363C118.827 16.2461 118.656 16.2998 118.383 16.3975C118.109 16.4951 117.943 16.5537 117.885 16.5732C117.211 16.7979 116.649 16.9102 116.2 16.9102C115.478 16.9102 115.092 16.6172 115.043 16.0312C114.975 16.0312 114.408 16.1729 113.344 16.4561C112.279 16.7393 111.493 16.8809 110.985 16.8809C110.653 16.8809 110.419 16.8271 110.282 16.7197C110.097 16.5635 110.004 16.3926 110.004 16.207C110.004 16.0117 110.111 15.8311 110.326 15.665C110.551 15.4893 110.824 15.3477 111.146 15.2402C111.547 15.1133 111.947 15.0303 112.348 14.9912C112.416 14.9814 112.514 14.9766 112.641 14.9766C112.973 14.9766 113.197 15.123 113.314 15.416Z" fill="#2A2B4E"/>
<path d="M133.336 16.8955C133.512 17.0322 133.81 17.1006 134.229 17.1006C134.513 17.1006 134.732 17.0518 134.889 16.9541C134.869 16.8662 134.776 16.7539 134.61 16.6172C134.513 16.5293 134.439 16.4854 134.391 16.4854C134.352 16.4756 134.288 16.4902 134.2 16.5293C133.829 16.6562 133.541 16.7783 133.336 16.8955ZM140.382 16.3096L140.25 16.4854C140.143 16.583 139.688 16.6318 138.888 16.6318C138.741 16.6318 138.57 16.6318 138.375 16.6318C138.189 16.6221 138.087 16.6172 138.067 16.6172C137.784 16.6074 137.369 16.583 136.822 16.5439C136.285 16.4951 135.88 16.4658 135.606 16.4561C135.616 16.4951 135.641 16.5537 135.68 16.6318C135.729 16.7002 135.763 16.7637 135.782 16.8223C135.841 16.959 135.86 17.1104 135.841 17.2764C135.772 17.7842 135.328 18.0381 134.508 18.0381C134.146 18.0381 133.834 17.999 133.57 17.9209C133.18 17.8135 132.857 17.6523 132.604 17.4375C132.35 17.2129 132.223 16.9834 132.223 16.749C132.223 16.4072 132.506 16.1094 133.072 15.8555C133.297 15.748 133.551 15.6504 133.834 15.5625C134.078 15.4844 134.283 15.4453 134.449 15.4453C134.479 15.4453 134.527 15.4502 134.596 15.46C134.664 15.46 134.723 15.46 134.771 15.46C135.094 15.4697 135.68 15.5088 136.529 15.5771C137.379 15.6455 138.087 15.6797 138.653 15.6797H138.8C138.917 15.6797 139.073 15.6699 139.269 15.6504C139.464 15.6309 139.601 15.6211 139.679 15.6211C139.962 15.6211 140.162 15.7188 140.279 15.9141L140.382 16.1045V16.3096Z" fill="#2A2B4E"/>
<path d="M142.444 17.6719C142.317 17.1836 142.254 16.8223 142.254 16.5879C142.254 16.4121 142.273 16.2412 142.312 16.0752C142.4 15.6357 142.591 15.2061 142.884 14.7861C143.089 14.4736 143.299 14.2197 143.514 14.0244C143.553 13.9854 143.646 13.8975 143.792 13.7607C143.938 13.6143 144.065 13.4922 144.173 13.3945C144.28 13.2969 144.407 13.1895 144.554 13.0723C144.7 12.9453 144.837 12.8428 144.964 12.7646C145.091 12.6865 145.203 12.6377 145.301 12.6182C145.555 12.5498 145.77 12.6279 145.945 12.8525C146.043 12.9795 146.092 13.1211 146.092 13.2773C146.092 13.4434 145.97 13.7461 145.726 14.1855C145.638 14.3418 145.506 14.542 145.33 14.7861C145.154 15.0205 145.037 15.1865 144.979 15.2842C144.803 15.5479 144.612 15.6406 144.407 15.5625C144.368 15.5527 144.329 15.5381 144.29 15.5186C144.261 15.499 144.231 15.4795 144.202 15.46C144.183 15.4307 144.163 15.4062 144.144 15.3867C144.124 15.3672 144.104 15.3428 144.085 15.3135C144.075 15.2842 144.065 15.2598 144.056 15.2402C144.046 15.2207 144.031 15.1963 144.012 15.167C144.002 15.1279 143.992 15.1035 143.982 15.0938C143.787 15.2793 143.592 15.5869 143.396 16.0166C143.27 16.3193 143.206 16.627 143.206 16.9395C143.206 17.0859 143.23 17.1982 143.279 17.2764C143.406 17.2275 143.694 17.1055 144.144 16.9102C144.593 16.7051 144.93 16.5537 145.154 16.4561C145.389 16.3584 145.687 16.2412 146.048 16.1045C146.419 15.9678 146.751 15.8604 147.044 15.7822C147.396 15.6748 147.649 15.6309 147.806 15.6504C147.962 15.6602 148.089 15.7285 148.187 15.8555C148.284 15.9824 148.333 16.1143 148.333 16.251C148.333 16.4463 148.24 16.5635 148.055 16.6025C147.488 16.71 146.819 16.915 146.048 17.2178C145.804 17.3154 145.477 17.457 145.066 17.6426C144.656 17.8184 144.363 17.9404 144.188 18.0088C144.158 18.0186 144.065 18.0625 143.909 18.1406C143.753 18.209 143.646 18.2529 143.587 18.2725C143.597 18.3311 143.602 18.4092 143.602 18.5068C143.602 18.7607 143.538 18.9561 143.411 19.0928C143.284 19.2295 143.06 19.3418 142.737 19.4297C142.19 19.5859 141.756 19.6641 141.434 19.6641C141.248 19.6641 141.111 19.6396 141.023 19.5908C140.73 19.415 140.608 19.1904 140.657 18.917C140.687 18.7607 140.838 18.5947 141.111 18.4189C141.375 18.2432 141.653 18.0869 141.946 17.9502C142.239 17.8037 142.405 17.7109 142.444 17.6719Z" fill="#2A2B4E"/>
<path d="M153.955 15.8701C153.926 16.0166 153.872 16.1631 153.794 16.3096L153.457 16.8223L153.179 17.1299C153.159 17.1494 153.135 17.1787 153.105 17.2178C153.076 17.2471 153.052 17.2715 153.032 17.291C152.788 17.5254 152.632 17.6572 152.563 17.6865C152.534 17.6963 152.49 17.7012 152.432 17.7012C152.275 17.7012 152.139 17.6426 152.021 17.5254C151.904 17.3984 151.846 17.2617 151.846 17.1152C151.846 17.0273 151.875 16.9443 151.934 16.8662C152.002 16.7881 152.085 16.7051 152.183 16.6172C152.29 16.5293 152.368 16.4561 152.417 16.3975L152.681 16.0898C152.788 15.9434 152.866 15.8164 152.915 15.709C152.974 15.6016 153.008 15.5186 153.018 15.46C153.037 15.3916 153.057 15.3428 153.076 15.3135C153.184 15.167 153.325 15.123 153.501 15.1816C153.647 15.2207 153.765 15.3037 153.853 15.4307C153.95 15.5576 153.984 15.7041 153.955 15.8701Z" fill="#2A2B4E"/>
<path d="M180.313 24.4541C180.831 24.1416 181.651 22.9795 182.774 20.9678C182.872 20.792 183.038 20.4893 183.272 20.0596C183.507 19.6201 183.692 19.2832 183.829 19.0488L184.84 17.1152L182.291 17.2031C182.174 17.7793 181.842 18.9854 181.295 20.8213C181.266 20.9189 181.183 21.1777 181.046 21.5977C180.919 22.0176 180.807 22.3789 180.709 22.6816C180.611 22.9844 180.519 23.3164 180.431 23.6777C180.353 24.0293 180.313 24.2881 180.313 24.4541ZM210.738 0.152344C210.787 0.171875 210.973 0.201172 211.295 0.240234C211.627 0.279297 211.832 0.308594 211.91 0.328125C212.389 0.435547 212.799 0.630859 213.141 0.914062C213.492 1.19727 213.668 1.55371 213.668 1.9834C213.668 2.12988 213.639 2.29102 213.58 2.4668C213.502 2.73047 213.38 2.98926 213.214 3.24316C213.058 3.49707 212.877 3.62402 212.672 3.62402C212.525 3.62402 212.394 3.56055 212.276 3.43359C212.169 3.32617 212.115 3.21387 212.115 3.09668C212.115 2.98926 212.213 2.79395 212.408 2.51074C212.604 2.21777 212.701 1.95898 212.701 1.73438C212.701 1.66602 212.696 1.6123 212.687 1.57324C212.169 1.25098 211.275 1.08984 210.006 1.08984C207.008 1.08984 202.052 1.96387 195.138 3.71191C193.312 4.1709 190.621 4.92773 187.066 5.98242C185.631 6.41211 184.327 6.82715 183.155 7.22754C180.724 8.03809 179.454 8.4873 179.347 8.5752C180.372 8.64355 181.109 8.88281 181.559 9.29297C182.467 10.1133 182.921 11.2607 182.921 12.7354C182.921 12.999 182.906 13.2969 182.877 13.6289C182.848 13.9609 182.818 14.2393 182.789 14.4639C182.76 14.6787 182.711 14.9912 182.643 15.4014C182.584 15.8018 182.545 16.0752 182.525 16.2217L185.338 16.1338L187.843 11.6367C187.862 11.5977 187.911 11.5049 187.989 11.3584C188.077 11.2021 188.146 11.0801 188.194 10.9922C188.253 10.9043 188.321 10.8018 188.399 10.6846C188.478 10.5674 188.551 10.4795 188.619 10.4209C188.688 10.3525 188.751 10.3184 188.81 10.3184C188.976 10.3086 189.117 10.3574 189.234 10.4648C189.352 10.5723 189.415 10.7041 189.425 10.8604C189.425 10.9287 189.405 11.0117 189.366 11.1094C189.327 11.1973 189.269 11.3096 189.19 11.4463C189.112 11.5732 189.068 11.6416 189.059 11.6514C188.99 11.7686 188.858 11.998 188.663 12.3398C188.468 12.6719 188.316 12.9258 188.209 13.1016C188.121 13.2383 187.838 13.751 187.359 14.6396C186.881 15.5283 186.627 16.0166 186.598 16.1045C187.027 16.1045 187.716 16.0996 188.663 16.0898C189.61 16.0703 190.333 16.0605 190.831 16.0605C192.052 16.0605 193.038 16.0898 193.79 16.1484C194.62 16.207 195.113 16.3584 195.27 16.6025C195.309 16.6709 195.328 16.749 195.328 16.8369C195.328 16.915 195.318 16.9785 195.299 17.0273C195.25 17.1641 195.143 17.2324 194.977 17.2324C194.957 17.2324 194.757 17.2031 194.376 17.1445C193.644 17.0566 192.525 17.0127 191.021 17.0127C190.377 17.0127 189.483 17.0273 188.341 17.0566C187.198 17.0762 186.446 17.0859 186.085 17.0859C186.007 17.2031 185.899 17.3936 185.763 17.6572C185.626 17.9111 185.543 18.0674 185.514 18.126C185.416 18.3018 185.128 18.834 184.649 19.7227C184.181 20.6113 183.795 21.3242 183.492 21.8613C183.199 22.3887 182.833 22.9795 182.394 23.6338C181.964 24.2881 181.593 24.7568 181.28 25.04C180.929 25.3721 180.606 25.5381 180.313 25.5381C180.304 25.5381 180.284 25.5332 180.255 25.5234C180.226 25.5234 180.206 25.5234 180.196 25.5234C179.991 25.4941 179.811 25.4111 179.654 25.2744C179.498 25.1377 179.4 24.9766 179.361 24.791C179.342 24.6934 179.332 24.6104 179.332 24.542C179.332 24.2881 179.386 23.917 179.493 23.4287C179.601 22.9307 179.713 22.4863 179.83 22.0957C179.947 21.7051 180.089 21.2314 180.255 20.6748C180.431 20.1084 180.533 19.7812 180.562 19.6934C180.943 18.4238 181.173 17.6035 181.251 17.2324H181.09C181.051 17.2324 180.343 17.2617 178.966 17.3203C178.585 17.3496 178.312 17.3643 178.146 17.3643C177.54 17.3643 177.237 17.1738 177.237 16.793C177.237 16.7148 177.252 16.6514 177.281 16.6025C177.311 16.5537 177.34 16.5146 177.369 16.4854C177.408 16.4561 177.462 16.4365 177.53 16.4268C177.608 16.4072 177.667 16.3975 177.706 16.3975C177.745 16.3877 177.813 16.3828 177.911 16.3828C178.009 16.3828 178.072 16.3828 178.102 16.3828C178.229 16.3828 178.414 16.3779 178.658 16.3682C178.912 16.3584 179.103 16.3486 179.229 16.3389C180.704 16.2803 181.461 16.251 181.5 16.251C181.52 16.1436 181.559 15.9287 181.617 15.6064C181.676 15.2744 181.72 15.0254 181.749 14.8594C181.778 14.6836 181.812 14.4541 181.852 14.1709C181.891 13.8877 181.92 13.6289 181.939 13.3945C181.959 13.1504 181.969 12.9111 181.969 12.6768C181.969 12.0713 181.905 11.5586 181.778 11.1387C181.651 10.7188 181.485 10.3916 181.28 10.1572C181.075 9.92285 180.782 9.75195 180.401 9.64453C180.108 9.56641 179.806 9.52734 179.493 9.52734C178.097 9.52734 176.173 10.1523 173.722 11.4023C172.95 11.793 172.013 12.3154 170.909 12.9697C169.796 13.6143 168.912 14.166 168.258 14.625L166.544 15.7822C166.456 15.8408 166.31 15.9482 166.104 16.1045C165.89 16.2607 165.719 16.373 165.592 16.4414C165.455 16.5098 165.333 16.5439 165.226 16.5439C165.05 16.5439 164.903 16.4365 164.786 16.2217C164.659 15.9971 164.596 15.7773 164.596 15.5625C164.596 15.3086 164.669 15.0498 164.815 14.7861C164.962 14.5225 165.177 14.2734 165.46 14.0391C165.733 13.7949 165.963 13.6045 166.148 13.4678C166.334 13.3311 166.573 13.165 166.866 12.9697C167.296 12.6768 167.906 12.3252 168.697 11.915C172.711 9.81543 178.258 7.65723 185.338 5.44043C192.428 3.22363 198.536 1.68066 203.663 0.811523C204.61 0.645508 205.44 0.518555 206.153 0.430664C206.251 0.411133 206.51 0.381836 206.93 0.342773C207.359 0.303711 207.76 0.269531 208.131 0.240234C208.512 0.201172 208.722 0.171875 208.761 0.152344H210.738Z" fill="#2A2B4E"/>
<path d="M199.617 16.8955C199.734 16.9443 199.896 16.9688 200.101 16.9688C200.354 16.9688 200.594 16.9199 200.818 16.8223C201.189 16.6562 201.399 16.5049 201.448 16.3682C201.458 16.3389 201.443 16.3047 201.404 16.2656C201.258 16.1387 201.058 16.0361 200.804 15.958C200.765 15.9482 200.721 15.958 200.672 15.9873C200.623 16.0068 200.56 16.041 200.481 16.0898C200.403 16.1387 200.354 16.168 200.335 16.1777C200.218 16.2461 200.096 16.334 199.969 16.4414L199.925 16.4854C199.886 16.5146 199.827 16.5781 199.749 16.6758C199.671 16.7734 199.627 16.8467 199.617 16.8955ZM202.195 15.8994C202.205 15.9092 202.225 15.9385 202.254 15.9873C202.283 16.0361 202.303 16.0752 202.312 16.1045C202.43 16.3486 202.444 16.5977 202.356 16.8516C202.327 16.9395 202.249 17.0615 202.122 17.2178C202.093 17.2568 202.039 17.3057 201.961 17.3643C201.941 17.374 201.912 17.3936 201.873 17.4229C201.844 17.4521 201.819 17.4766 201.8 17.4961C201.351 17.7793 200.853 17.9209 200.306 17.9209C200.159 17.9209 200.003 17.9062 199.837 17.877C199.505 17.8086 199.231 17.6768 199.017 17.4814C198.772 17.2568 198.65 17.0029 198.65 16.7197C198.65 16.5342 198.699 16.3584 198.797 16.1924C198.885 16.0361 199.051 15.8457 199.295 15.6211L199.544 15.4307C199.974 15.1182 200.325 14.9619 200.599 14.9619H200.672C200.789 14.9619 200.975 14.9619 201.229 14.9619C201.492 14.9521 201.688 14.9473 201.814 14.9473C201.873 14.9473 202 14.9521 202.195 14.9619C202.4 14.9619 202.557 14.9619 202.664 14.9619C202.723 14.9619 202.791 14.9619 202.869 14.9619C202.947 14.9521 203.001 14.9473 203.03 14.9473H203.484H203.689C203.924 14.9473 204.095 14.9424 204.202 14.9326L204.803 14.918C205.281 14.918 205.853 14.8838 206.517 14.8154C206.761 14.7959 206.932 14.8252 207.029 14.9033C207.146 14.9912 207.229 15.1035 207.278 15.2402C207.317 15.3672 207.293 15.5234 207.205 15.709C207.088 15.9043 207.029 16.0459 207.029 16.1338L207.718 15.9434C207.972 15.8652 208.333 15.748 208.802 15.5918C209.271 15.4355 209.568 15.3379 209.695 15.2988C209.773 15.2793 209.886 15.2402 210.032 15.1816C210.179 15.123 210.286 15.084 210.354 15.0645C210.384 15.0547 210.433 15.0498 210.501 15.0498C210.647 15.0498 210.779 15.1084 210.896 15.2256C211.023 15.333 211.087 15.4648 211.087 15.6211C211.087 15.709 211.023 15.8555 210.896 16.0605C210.779 16.2559 210.716 16.4072 210.706 16.5146H210.779C211.004 16.5146 211.351 16.4316 211.819 16.2656C212.015 16.207 212.415 16.041 213.021 15.7676C213.118 15.7188 213.211 15.7041 213.299 15.7236C213.367 15.7334 213.445 15.7725 213.533 15.8408C213.631 15.9092 213.689 15.9629 213.709 16.002C213.826 16.207 213.841 16.3828 213.753 16.5293C213.733 16.5684 213.665 16.6123 213.548 16.6611C212.591 17.1006 211.834 17.3643 211.277 17.4521C211.102 17.4717 210.984 17.4814 210.926 17.4814C210.623 17.4814 210.354 17.3936 210.12 17.2178C210.11 17.208 210.101 17.2031 210.091 17.2031C210.091 17.2031 210.086 17.1982 210.076 17.1885C209.979 17.0908 209.905 16.9932 209.856 16.8955C209.739 16.6807 209.7 16.5049 209.739 16.3682C209.681 16.3877 209.515 16.4414 209.241 16.5293C208.978 16.6172 208.768 16.6855 208.611 16.7344C208.055 16.9102 207.674 17.0225 207.469 17.0713C207.215 17.1299 207.02 17.1592 206.883 17.1592C206.658 17.1592 206.468 17.0859 206.312 16.9395C206.106 16.7441 206.004 16.5146 206.004 16.251C206.004 16.1143 206.023 15.9727 206.062 15.8262C205.955 15.8262 205.794 15.8359 205.579 15.8555C205.53 15.8555 205.452 15.8555 205.345 15.8555C205.237 15.8555 205.159 15.8604 205.11 15.8701C204.759 15.8896 204.246 15.8994 203.572 15.8994H203.016H202.195Z" fill="#2A2B4E"/>
<path d="M216.885 16.1191L217.793 15.709C218.32 15.4941 218.745 15.3867 219.067 15.3867C219.292 15.3867 219.468 15.4404 219.595 15.5479C219.731 15.6455 219.863 15.7969 219.99 16.002C220.127 16.1973 220.254 16.3486 220.371 16.4561C220.576 16.6318 220.879 16.7197 221.279 16.7197C222.031 16.7197 223.115 16.417 224.531 15.8115C224.766 15.7139 224.932 15.6797 225.029 15.709C225.166 15.748 225.273 15.8262 225.352 15.9434C225.439 16.0508 225.483 16.1631 225.483 16.2803C225.483 16.3584 225.459 16.4316 225.41 16.5C225.371 16.5488 225.225 16.6318 224.971 16.749C223.574 17.3545 222.427 17.6572 221.528 17.6572C220.796 17.6572 220.225 17.4668 219.814 17.0859C219.59 16.8809 219.395 16.6318 219.229 16.3389C218.75 16.3877 217.969 16.7051 216.885 17.291C216.709 17.3887 216.528 17.4863 216.343 17.584C216.294 17.6133 216.206 17.6621 216.079 17.7305C215.962 17.7988 215.874 17.8477 215.815 17.877C215.776 17.8965 215.718 17.9062 215.64 17.9062C215.493 17.9062 215.361 17.8477 215.244 17.7305C215.127 17.6035 215.068 17.4668 215.068 17.3203C215.068 17.2617 215.083 17.1934 215.112 17.1152C215.239 16.8809 215.435 16.5293 215.698 16.0605C215.972 15.5918 216.172 15.2402 216.299 15.0059C216.416 14.7812 216.533 14.6592 216.65 14.6396C216.68 14.6299 216.709 14.625 216.738 14.625C216.943 14.625 217.109 14.7324 217.236 14.9473C217.285 15.0254 217.31 15.1133 217.31 15.2109C217.31 15.3184 217.246 15.4746 217.119 15.6797C216.992 15.875 216.914 16.0215 216.885 16.1191Z" fill="#2A2B4E"/>
<path d="M228.586 15.9287C228.947 15.9092 229.362 15.7969 229.831 15.5918C229.968 15.5332 230.158 15.4355 230.402 15.2988C230.656 15.1523 230.808 15.0498 230.856 14.9912C230.622 15.001 230.231 15.123 229.685 15.3574C229.147 15.5918 228.781 15.7822 228.586 15.9287ZM241.696 0.84082L241.799 0.899414C241.857 0.938477 241.906 0.977539 241.945 1.0166C241.994 1.05566 242.038 1.11426 242.077 1.19238C242.126 1.27051 242.15 1.35352 242.15 1.44141C242.15 1.55859 242.111 1.71484 242.033 1.91016C241.965 2.0957 241.892 2.25684 241.813 2.39355C241.745 2.53027 241.647 2.71094 241.521 2.93555C241.403 3.16016 241.335 3.28711 241.315 3.31641C241.071 3.77539 240.793 4.26855 240.48 4.7959C240.178 5.31348 239.816 5.91895 239.396 6.6123C238.977 7.30566 238.684 7.79395 238.518 8.07715C238.42 8.2334 238.303 8.42871 238.166 8.66309L237.082 10.4355C236.926 10.6992 236.501 11.4023 235.808 12.5449C235.124 13.6777 234.602 14.5518 234.24 15.167L233.537 16.3535C232.688 17.7598 231.989 18.9609 231.442 19.957C231.335 20.1621 231.12 20.543 230.798 21.0996C230.476 21.6562 230.236 22.0859 230.08 22.3887C230.021 22.5059 229.914 22.7012 229.758 22.9746C229.602 23.2383 229.484 23.4482 229.406 23.6045C228.859 24.6396 228.439 25.4795 228.146 26.124C228.068 26.2998 227.946 26.3877 227.78 26.3877C227.634 26.3877 227.497 26.3242 227.37 26.1973C227.253 26.0801 227.194 25.9482 227.194 25.8018C227.194 25.7041 227.399 25.2451 227.81 24.4248C228.308 23.4189 228.747 22.5889 229.128 21.9346C229.206 21.7979 229.318 21.5977 229.465 21.334C229.611 21.0605 229.724 20.8555 229.802 20.7188C229.929 20.4941 230.144 20.1133 230.446 19.5762C230.759 19.0293 231.003 18.6094 231.179 18.3164C231.257 18.1797 231.369 17.9795 231.516 17.7158C231.672 17.4521 231.789 17.252 231.867 17.1152L233.977 13.541L233.332 14.2295C232.922 14.6396 232.688 14.8691 232.629 14.918C232.316 15.1914 232.072 15.3965 231.896 15.5332C230.676 16.4414 229.606 16.8955 228.688 16.8955C228.405 16.8955 228.132 16.8613 227.868 16.793C227.712 16.7539 227.585 16.71 227.487 16.6611C227.399 16.6123 227.341 16.5732 227.312 16.5439C227.282 16.5146 227.243 16.4561 227.194 16.3682C227.146 16.2705 227.111 16.207 227.092 16.1777V15.8994C227.18 15.7529 227.233 15.665 227.253 15.6357C227.487 15.3428 228.015 14.9961 228.835 14.5957C229.665 14.1953 230.363 13.9951 230.93 13.9951C231.164 13.9951 231.35 14.0293 231.486 14.0977C231.525 14.1172 231.574 14.1514 231.633 14.2002C231.691 14.2393 231.735 14.2637 231.765 14.2734C231.833 14.1953 232.004 14.0244 232.277 13.7607C232.551 13.4971 232.736 13.3115 232.834 13.2041C232.854 13.1748 232.883 13.1455 232.922 13.1162C232.961 13.0869 232.99 13.0576 233.01 13.0283C233.029 12.999 233.244 12.7451 233.654 12.2666C234.064 11.7881 234.343 11.4512 234.489 11.2559L235.412 10.0254C235.432 10.0059 235.456 9.97168 235.485 9.92285C235.515 9.87402 235.539 9.83984 235.559 9.82031C236.262 8.81445 237.16 7.42773 238.254 5.66016C238.43 5.37695 238.522 5.23047 238.532 5.2207C238.698 4.9375 238.879 4.63477 239.074 4.3125C239.191 4.11719 239.367 3.81934 239.602 3.41895C239.836 3.01855 240.017 2.71582 240.144 2.51074L240.979 1.19238C241.047 1.09473 241.179 0.977539 241.374 0.84082H241.696Z" fill="#2A2B4E"/>
<path d="M240.346 16.2363C240.453 16.3145 240.951 16.3535 241.84 16.3535C241.84 16.3535 242.001 16.3535 242.323 16.3535C243.515 16.3145 244.76 16.1631 246.059 15.8994C246.156 15.8799 246.298 15.8506 246.483 15.8115C246.679 15.7627 246.825 15.7285 246.923 15.709C247.108 15.6504 247.255 15.6309 247.362 15.6504C247.47 15.6602 247.582 15.7236 247.699 15.8408C247.807 15.9482 247.865 16.0752 247.875 16.2217C247.885 16.3584 247.826 16.4658 247.699 16.5439C247.582 16.6025 247.177 16.7002 246.483 16.8369C245.8 16.9639 245.331 17.042 245.077 17.0713C243.915 17.2373 242.875 17.3203 241.957 17.3203C240.717 17.3203 239.892 17.1543 239.481 16.8223C239.228 16.6172 239.101 16.3975 239.101 16.1631C239.101 16.0166 239.242 15.8115 239.525 15.5479C240.346 14.7666 241.205 14.2197 242.104 13.9072C242.426 13.79 242.753 13.7314 243.085 13.7314C243.378 13.7314 243.607 13.7998 243.773 13.9365C244.047 14.1611 244.135 14.4102 244.037 14.6836C244.018 14.7422 243.983 14.8008 243.935 14.8594C243.896 14.9082 243.852 14.957 243.803 15.0059C243.754 15.0547 243.69 15.1035 243.612 15.1523C243.534 15.2012 243.461 15.2451 243.393 15.2842C243.334 15.3135 243.251 15.3525 243.144 15.4014C243.046 15.4404 242.968 15.4746 242.909 15.5039C242.851 15.5234 242.763 15.5527 242.646 15.5918C242.538 15.6309 242.465 15.6602 242.426 15.6797C242.387 15.6895 242.309 15.7139 242.191 15.7529C242.084 15.7822 242.025 15.7969 242.016 15.7969C241.859 15.8457 241.581 15.9141 241.181 16.002L240.521 16.1484C240.434 16.168 240.375 16.1973 240.346 16.2363Z" fill="#2A2B4E"/>
<path d="M257.496 16.3828L257.481 16.4121C257.442 16.5 257.394 16.5586 257.335 16.5879C257.276 16.6172 257.198 16.6514 257.101 16.6904C255.118 17.5107 253.707 17.9209 252.867 17.9209C252.623 17.9209 252.413 17.8916 252.237 17.833C251.905 17.7354 251.656 17.5352 251.49 17.2324C251.383 17.0176 251.329 16.8369 251.329 16.6904C251.329 16.5146 251.368 16.3486 251.446 16.1924C251.534 16.0264 251.622 15.8896 251.71 15.7822C251.798 15.665 251.847 15.5918 251.856 15.5625C251.28 15.6895 250.675 15.7529 250.04 15.7529C250.011 15.7529 249.977 15.7529 249.938 15.7529C249.898 15.7432 249.874 15.7383 249.864 15.7383C249.688 15.7285 249.547 15.6602 249.439 15.5332C249.322 15.4062 249.264 15.2646 249.264 15.1084C249.264 14.9521 249.327 14.8301 249.454 14.7422C249.542 14.7031 249.605 14.6836 249.645 14.6836C249.684 14.6836 249.737 14.6982 249.806 14.7275C249.874 14.7471 249.923 14.7568 249.952 14.7568C250.021 14.7568 250.318 14.708 250.846 14.6104C251.373 14.5127 251.793 14.4639 252.105 14.4639C252.496 14.4639 252.779 14.5322 252.955 14.6689C253.15 14.8252 253.248 15.0107 253.248 15.2256C253.248 15.3135 253.224 15.4062 253.175 15.5039C253.175 15.5137 253.038 15.6943 252.765 16.0459C252.491 16.3975 252.354 16.6416 252.354 16.7783C252.354 16.9053 252.438 16.9688 252.604 16.9688H252.647C252.989 16.9688 253.487 16.876 254.142 16.6904C254.728 16.5146 255.318 16.3047 255.914 16.0605C255.992 16.0312 256.09 15.9922 256.207 15.9434C256.324 15.8848 256.412 15.8408 256.471 15.8115C256.539 15.7822 256.612 15.7578 256.69 15.7383C256.778 15.709 256.856 15.6943 256.925 15.6943C257.032 15.6943 257.14 15.7334 257.247 15.8115C257.306 15.8506 257.389 15.9629 257.496 16.1484V16.3828Z" fill="#2A2B4E"/>
</svg>
